<svg width="31" height="22" viewBox="0 0 31 22" fill="none" xmlns="http://www.w3.org/2000/svg">
<path d="M17.9014 5.2999C17.6252 5.2999 17.4014 5.52376 17.4014 5.7999C17.4014 6.07605 17.6252 6.2999 17.9014 6.2999V5.2999ZM23.2234 6.68991L22.9196 7.08704L22.9213 7.08839L23.2234 6.68991ZM24.6099 8.69136L24.1409 8.86469L24.1415 8.86624L24.6099 8.69136ZM25.216 10.8972L25.6844 10.7225L25.6841 10.7215L25.216 10.8972ZM27.5158 12.1194L27.5973 11.6261L27.5972 11.626L27.5158 12.1194ZM28.5892 17.8001V18.3001H29.5892V17.8001H28.5892ZM4.30818 18.4568C4.58432 18.4568 4.80818 18.2329 4.80818 17.9568C4.80818 17.6806 4.58432 17.4568 4.30818 17.4568V18.4568ZM1.26465 17.4568H0.764648V18.4568H1.26465V17.4568ZM29.7347 18.4608L30.2347 18.4615L30.236 17.4615L29.736 17.4608L29.7347 18.4608ZM26.7052 17.4568L26.2052 17.4561L26.2038 18.4561L26.7038 18.4568L26.7052 17.4568ZM1.3159 17.522C1.3159 17.7981 1.53976 18.022 1.8159 18.022C2.09204 18.022 2.3159 17.7981 2.3159 17.522H1.3159ZM17.4144 17.0875C17.4144 17.3637 17.6382 17.5875 17.9144 17.5875C18.1905 17.5875 18.4144 17.3637 18.4144 17.0875H17.4144ZM9.90095 17.4568C9.6248 17.4568 9.40095 17.6806 9.40095 17.9568C9.40095 18.2329 9.6248 18.4568 9.90095 18.4568V17.4568ZM21.9011 18.4568C22.1773 18.4568 22.4011 18.2329 22.4011 17.9568C22.4011 17.6806 22.1773 17.4568 21.9011 17.4568V18.4568ZM17.9014 6.2999C18.2307 6.2999 19.2971 6.33413 20.3979 6.46059C20.9482 6.5238 21.4955 6.60879 21.9585 6.72067C22.4402 6.83706 22.7633 6.96748 22.9196 7.08703L23.5272 6.29279C23.1936 6.0376 22.6931 5.8694 22.1934 5.74865C21.675 5.62339 21.0831 5.53272 20.512 5.46712C19.37 5.33594 18.2653 5.2999 17.9014 5.2999V6.2999ZM22.9213 7.08839C23.4732 7.50664 23.8753 8.14601 24.1409 8.86469L25.0789 8.51803C24.7716 7.68665 24.277 6.86113 23.5254 6.29143L22.9213 7.08839ZM24.1415 8.86624C24.2769 9.22907 24.3473 9.54916 24.4244 9.90251C24.5009 10.253 24.5842 10.6369 24.7479 11.0729L25.6841 10.7215C25.5488 10.3612 25.4785 10.0424 25.4014 9.68926C25.325 9.33891 25.2417 8.95423 25.0783 8.51648L24.1415 8.86624ZM24.7475 11.072C24.8759 11.4162 25.0418 11.6943 25.2555 11.9117C25.4716 12.1316 25.7155 12.2681 25.9681 12.3569C26.2129 12.4429 26.4685 12.4848 26.706 12.5163C26.9598 12.5499 27.1788 12.5705 27.4344 12.6127L27.5972 11.626C27.3236 11.5809 27.0454 11.5525 26.8375 11.525C26.6133 11.4952 26.4426 11.4637 26.2998 11.4135C26.1647 11.366 26.0597 11.3034 25.9687 11.2108C25.8754 11.1158 25.776 10.968 25.6844 10.7225L24.7475 11.072ZM27.4343 12.6127C27.8164 12.6758 28.0451 12.8008 28.1911 12.9384C28.3382 13.0769 28.4395 13.264 28.5051 13.5159C28.5721 13.7733 28.5965 14.0776 28.6008 14.4281C28.6055 14.807 28.5892 15.114 28.5892 15.5261H29.5892C29.5892 15.21 29.605 14.7649 29.6007 14.4158C29.5961 14.0381 29.5704 13.6385 29.4729 13.264C29.374 12.8841 29.1964 12.5115 28.8768 12.2105C28.5562 11.9085 28.1306 11.7141 27.5973 11.6261L27.4343 12.6127ZM28.5892 15.5261V17.8001H29.5892V15.5261H28.5892ZM4.30818 17.4568H1.26465V18.4568H4.30818V17.4568ZM29.736 17.4608L26.7052 17.4568L26.7038 18.4568L29.7347 18.4608L29.736 17.4608ZM2.3159 17.522V1.85091H1.3159V17.522H2.3159ZM2.3159 1.85091C2.3159 1.65703 2.47293 1.5 2.66681 1.5V0.5C1.92064 0.5 1.3159 1.10474 1.3159 1.85091H2.3159ZM2.66681 1.5H17.0635V0.5H2.66681V1.5ZM17.0635 1.5C17.2573 1.5 17.4144 1.65703 17.4144 1.85091H18.4144C18.4144 1.10474 17.8096 0.5 17.0635 0.5V1.5ZM17.4144 1.85091V17.0875H18.4144V1.85091H17.4144ZM9.90095 18.4568H21.9011V17.4568H9.90095V18.4568ZM26.2004 18.6C26.2004 19.6493 25.3498 20.5 24.3004 20.5V21.5C25.902 21.5 27.2004 20.2016 27.2004 18.6H26.2004ZM24.3004 20.5C23.251 20.5 22.4004 19.6493 22.4004 18.6H21.4004C21.4004 20.2016 22.6988 21.5 24.3004 21.5V20.5ZM22.4004 18.6C22.4004 17.5506 23.251 16.6999 24.3004 16.6999V15.6999C22.6988 15.6999 21.4004 16.9983 21.4004 18.6H22.4004ZM24.3004 16.6999C25.3498 16.6999 26.2004 17.5506 26.2004 18.6H27.2004C27.2004 16.9983 25.902 15.6999 24.3004 15.6999V16.6999ZM9.04305 18.6C9.04305 19.6493 8.19237 20.5 7.14301 20.5V21.5C8.74465 21.5 10.043 20.2016 10.043 18.6H9.04305ZM7.14301 20.5C6.09364 20.5 5.24297 19.6493 5.24297 18.6H4.24297C4.24297 20.2016 5.54136 21.5 7.14301 21.5V20.5ZM5.24297 18.6C5.24297 17.5506 6.09365 16.6999 7.14301 16.6999V15.6999C5.54136 15.6999 4.24297 16.9983 4.24297 18.6H5.24297ZM7.14301 16.6999C8.19237 16.6999 9.04305 17.5506 9.04305 18.6H10.043C10.043 16.9983 8.74465 15.6999 7.14301 15.6999V16.6999Z" fill="#010101"/>
</svg>
